<svg width="50" height="50" viewBox="0 0 168 168" fill="none" xmlns="http://www.w3.org/2000/svg">
<g filter="url(#filter0_d_807_65)">
<circle cx="84" cy="80" r="75" fill="url(#paint0_linear_807_65)" shape-rendering="crispEdges"/>
<circle cx="84" cy="80" r="62" stroke="#584141" stroke-width="26" shape-rendering="crispEdges"/>
</g>
<circle cx="84" cy="80" r="63.9205" fill="url(#paint1_linear_807_65)"/>
<circle cx="105.307" cy="79.1477" r="41.7273" fill="url(#paint2_linear_807_65)" stroke="#584141" stroke-width="12"/>
<path d="M74.4701 79.0254C87.5225 70.4378 98.3268 58.8573 105.988 45.2575C114.615 58.2702 126.226 69.0313 139.847 76.6461C126.773 85.2431 115.964 96.835 108.303 110.436L108.273 110.389C99.6586 97.3927 88.0695 86.6413 74.4701 79.0254Z" fill="url(#paint3_linear_807_65)" stroke="#574747" stroke-width="12"/>
<defs>
<filter id="filter0_d_807_65" x="0" y="0" width="168" height="168" filterUnits="userSpaceOnUse" color-interpolation-filters="sRGB">
<feFlood flood-opacity="0" result="BackgroundImageFix"/>
<feColorMatrix in="SourceAlpha" type="matrix" values="0 0 0 0 0 0 0 0 0 0 0 0 0 0 0 0 0 0 127 0" result="hardAlpha"/>
<feOffset dy="4"/>
<feGaussianBlur stdDeviation="4.5"/>
<feComposite in2="hardAlpha" operator="out"/>
<feColorMatrix type="matrix" values="0 0 0 0 0 0 0 0 0 0 0 0 0 0 0 0 0 0 0.25 0"/>
<feBlend mode="normal" in2="BackgroundImageFix" result="effect1_dropShadow_807_65"/>
<feBlend mode="normal" in="SourceGraphic" in2="effect1_dropShadow_807_65" result="shape"/>
</filter>
<linearGradient id="paint0_linear_807_65" x1="29" y1="162" x2="138" y2="37.5" gradientUnits="userSpaceOnUse">
<stop stop-color="#466FAD"/>
<stop offset="1" stop-color="#8CE3FF" stop-opacity="0"/>
</linearGradient>
<linearGradient id="paint1_linear_807_65" x1="37.125" y1="138.807" x2="118.943" y2="46.3353" gradientUnits="userSpaceOnUse">
<stop stop-color="#86A1C9"/>
<stop offset="0.794475" stop-color="#CFD8ED"/>
</linearGradient>
<linearGradient id="paint2_linear_807_65" x1="96" y1="97" x2="133" y2="59" gradientUnits="userSpaceOnUse">
<stop stop-color="#A8BBD7"/>
<stop offset="1" stop-color="white"/>
</linearGradient>
<linearGradient id="paint3_linear_807_65" x1="86.5" y1="99.5" x2="129" y2="62" gradientUnits="userSpaceOnUse">
<stop stop-color="#6D8AB5"/>
<stop offset="1" stop-color="#A2FF93" stop-opacity="0.97"/>
</linearGradient>
</defs>
</svg>
