<svg width="40" height="40" viewBox="0 0 162 162" fill="none" xmlns="http://www.w3.org/2000/svg">
<g filter="url(#filter0_d_807_58)">
<circle cx="81" cy="77" r="75" fill="#FFFDFD"/>
</g>
<ellipse cx="81" cy="77.5" rx="68" ry="67.5" fill="#FF7455"/>
<ellipse cx="81.5" cy="77" rx="57.5" ry="57" fill="#FEFDFC"/>
<ellipse cx="81.5" cy="77" rx="51.5" ry="51" fill="#FFA450"/>
<circle cx="81" cy="77" r="30" fill="#FFFBFB"/>
<ellipse cx="81.5" cy="77" rx="23.5" ry="23" fill="#D0FC1E"/>
<path d="M130.146 97.9271L131.546 97.2269C137.34 94.3299 141 88.4081 141 81.9303C141 77.0785 139.61 72.3282 136.995 68.2416L136.778 67.9024C134.351 64.1117 130.568 61.3919 126.201 60.3004C120.456 58.8641 114.374 60.4074 110.008 64.409L106.05 68.0371C101.442 72.2612 95.7435 75.1106 89.5994 76.2626L75 79L78.6561 82.8389C89.093 93.7976 103.565 100 118.699 100H121.365C124.413 100 127.419 99.2903 130.146 97.9271Z" fill="#7059FF" stroke="#FBFFFE" stroke-width="10"/>
<path d="M138.37 92.5162L139.929 90.6548C140.592 89.8627 141.83 90.7076 141.334 91.6139L139.966 94.1138C134.283 104.501 124.294 111.841 112.684 114.163C111.564 114.387 110.425 114.5 109.283 114.5H97.543C88.5902 114.5 79.7134 112.858 71.3528 109.656L65.8442 107.547C62.3035 106.191 58.9989 104.285 56.0521 101.899L53.0703 99.4855C51.0467 97.8474 48.6969 96.6601 46.1777 96.0029L44.6477 95.6037C40.7257 94.5806 36.5552 95.2283 33.1283 97.3927C30.4486 99.0851 28.3901 101.601 27.2618 104.563L25 110.5L22.2742 106.922C18.8529 102.432 17 96.9427 17 91.2974C17 86.5262 18.324 81.8486 20.8245 77.7851L21.3052 77.0041C23.7284 73.0663 27.1146 69.8105 31.1445 67.5437L31.8078 67.1706C37.6923 63.8606 44.6526 63.0302 51.1506 64.863C57.1708 66.561 62.3525 70.4212 65.7023 75.7037L68.8984 80.7436C71.9332 85.5292 75.9271 89.6336 80.6281 92.7978L90.3193 99.3207C96.3035 103.349 103.353 105.5 110.567 105.5C121.299 105.5 131.48 100.746 138.37 92.5162Z" fill="#A7D1F8" stroke="white" stroke-width="5"/>
<path d="M88 133.5C97.1277 131.144 118.742 122.183 134.03 112.567C135.87 111.41 134.709 108.979 132.61 109.549L114.848 114.37C109.639 115.784 104.266 116.5 98.8685 116.5H85.9491C83.3225 116.5 80.7019 116.248 78.1235 115.746L72.8131 114.714C67.0065 113.585 61.513 111.212 56.7096 107.76L49.1263 102.31C48.3766 101.771 47.5851 101.293 46.7593 100.88L43.8175 99.4088C40.7848 97.8924 37.2152 97.8924 34.1825 99.4088C31.5144 100.743 29.519 103.123 28.6716 105.983L28.4891 106.599C27.0005 111.623 28.872 117.038 33.1453 120.071L41.5 126L46.9405 128.89C53.8365 132.554 61.652 134.284 69.4225 135.055C74.1623 135.526 79.3801 135.724 88 133.5Z" fill="#ACE4A7" stroke="white" stroke-width="7"/>
<defs>
<filter id="filter0_d_807_58" x="0" y="0" width="162" height="162" filterUnits="userSpaceOnUse" color-interpolation-filters="sRGB">
<feFlood flood-opacity="0" result="BackgroundImageFix"/>
<feColorMatrix in="SourceAlpha" type="matrix" values="0 0 0 0 0 0 0 0 0 0 0 0 0 0 0 0 0 0 127 0" result="hardAlpha"/>
<feOffset dy="4"/>
<feGaussianBlur stdDeviation="3"/>
<feComposite in2="hardAlpha" operator="out"/>
<feColorMatrix type="matrix" values="0 0 0 0 0 0 0 0 0 0 0 0 0 0 0 0 0 0 0.25 0"/>
<feBlend mode="normal" in2="BackgroundImageFix" result="effect1_dropShadow_807_58"/>
<feBlend mode="normal" in="SourceGraphic" in2="effect1_dropShadow_807_58" result="shape"/>
</filter>
</defs>
</svg>
